<?xml version="1.0" encoding="utf-8"?>
<!-- Generator: Adobe Illustrator 25.2.0, SVG Export Plug-In . SVG Version: 6.00 Build 0)  -->
<svg version="1.1" xmlns="http://www.w3.org/2000/svg" xmlns:xlink="http://www.w3.org/1999/xlink" x="0px" y="0px"
	 viewBox="0 0 141.73 141.73" style="enable-background:new 0 0 141.73 141.73;" xml:space="preserve">
<style type="text/css">
	.st0{display:none;}
	.st1{display:inline;fill:#4C9AD4;}
	.st2{fill:#333C4B;}
	.st3{fill:#EDEAE3;}
	.st4{fill:#61ABDE;}
	.st5{fill:none;stroke:#B8BBD1;stroke-width:2.0022;stroke-miterlimit:10;}
	.st6{fill:#B8BBD1;}
	.st7{fill:#F1B079;}
	.st8{fill:#F9CB91;}
	.st9{fill:#B22E25;}
	.st10{fill:#EF4136;}
	.st11{fill:#4C9AD4;}
	.st12{filter:url(#Adobe_OpacityMaskFilter);}
	.st13{fill:#FFFFFF;}
	.st14{mask:url(#SVGID_1_);}
	.st15{fill:none;stroke:#B8BBD1;stroke-width:2.0023;stroke-miterlimit:10;}
	.st16{fill:#3C2415;}
</style>
<g id="BG" class="st0">
	<rect x="-141.73" y="-152.52" class="st1" width="425.2" height="446.31"/>
</g>
<g id="Icone">
	<g>
		<path class="st3" d="M41.48,94.55c-18.89,0-27.86,9.31-27.86,28.12v19.07h52.26L53.76,89.29C51.69,92.55,47.61,94.55,41.48,94.55z
			"/>
		<path class="st3" d="M128.11,122.67v19.07H75.85l7.7-33.34l4.42-19.11c1.91,3,5.54,4.94,10.91,5.22c0.45,0.02,0.91,0.04,1.38,0.04
			c0.37,0,0.73,0,1.09,0.01C119.5,94.91,128.11,104.22,128.11,122.67z"/>
		<polygon class="st7" points="87.97,55.2 87.97,83.02 70.87,99.14 53.76,83.02 53.76,55.2 		"/>
		<path class="st4" d="M88.51,86.96c0,0,0,0,0,0.01L85.52,99.9l-9.67,41.84h-9.97l-9.68-41.87l-2.98-12.89c0-0.01,0-0.01,0-0.01
			c0-0.01,0.01-0.02,0.01-0.03c0.04-0.13,0.08-0.27,0.11-0.4c0.04-0.14,0.07-0.28,0.1-0.42c0-0.02,0.01-0.03,0.01-0.05
			c0.16-0.76,0.27-1.58,0.29-2.48c0.01-0.18,0.01-0.37,0.01-0.55l17.1,16.12l17.1-16.12c0,0.19,0,0.37,0.01,0.55
			c0.03,0.9,0.13,1.72,0.29,2.48l0.01,0.05c0.03,0.14,0.07,0.28,0.1,0.42c0.04,0.13,0.07,0.27,0.11,0.4
			C88.5,86.94,88.51,86.95,88.51,86.96z"/>
		<g>
			<polygon class="st9" points="78.37,141.74 74.08,113.43 67.83,113.43 64.47,141.74 			"/>
			<polygon class="st10" points="63.75,99.14 78.41,99.14 74.08,113.43 67.83,113.43 			"/>
		</g>
		<path class="st11" d="M89.07,88.36c-0.65,2.13-2.14,6.95-3.55,11.53c-1.27,4.12-2.48,8.06-2.98,9.67l-0.45,1.45
			c0,0-9.57-9.01-11.23-10.58c-1.66,1.57-11.23,10.58-11.23,10.58l-0.45-1.45c-0.5-1.63-1.71-5.57-2.98-9.7
			c-1.41-4.58-2.89-9.37-3.54-11.5c0.22-0.44,0.4-0.91,0.56-1.41c0-0.01,0.01-0.02,0.01-0.03c0.04-0.13,0.08-0.27,0.11-0.4
			c0.04-0.14,0.07-0.28,0.1-0.42c0-0.02,0.01-0.03,0.01-0.05c0.17-0.75,0.27-1.58,0.29-2.48c0.01-0.18,0.01-0.37,0.01-0.55
			l17.1,16.12l17.1-16.12c0,0.19,0,0.37,0.01,0.55c0.03,0.9,0.13,1.72,0.29,2.48l0.01,0.05c0.03,0.14,0.07,0.28,0.1,0.42
			c0.03,0.14,0.07,0.27,0.11,0.4c0,0.01,0.01,0.02,0.01,0.03C88.66,87.46,88.85,87.92,89.07,88.36z"/>
		<path class="st4" d="M70.87,99.14c0,0-5.9,5.56-10.77,10.15c-0.99-3.24-4.89-15.89-6.33-20.57c-0.31-1.01-0.51-1.65-0.54-1.75
			c0-0.01,0-0.01,0-0.01c0.35-1.13,0.54-2.43,0.54-3.93L70.87,99.14z"/>
		<path class="st4" d="M88.51,86.96c0,0,0,0,0,0.01c-0.03,0.1-0.23,0.74-0.54,1.75c-1.44,4.69-5.34,17.34-6.33,20.57
			c-4.87-4.59-10.77-10.15-10.77-10.15l17.1-16.12C87.97,84.53,88.16,85.82,88.51,86.96z"/>
		<path class="st3" d="M13.62,133.77v7.97h52.26L53.22,86.95C48.45,102.38,13.62,87.23,13.62,133.77z"/>
		<path class="st3" d="M128.11,133.77c0-46.54-34.83-31.39-39.6-46.81l-12.66,54.78h52.26V133.77z"/>
		<defs>
			<filter id="Adobe_OpacityMaskFilter" filterUnits="userSpaceOnUse" x="29.2" y="78.96" width="84.87" height="60.05">
				
					<feColorMatrix  type="matrix" values="-1 0 0 0 1  0 -1 0 0 1  0 0 -1 0 1  0 0 0 1 0" color-interpolation-filters="sRGB" result="source"/>
				<feFlood  style="flood-color:white;flood-opacity:1" result="back"/>
				<feBlend  in="source" in2="back" mode="normal"/>
			</filter>
		</defs>
		<mask maskUnits="userSpaceOnUse" x="29.2" y="78.96" width="84.87" height="60.05" id="SVGID_1_">
			<g class="st12">
				<path class="st13" d="M88.51,86.96c0,0,0,0,0,0.01c-0.03,0.1-0.23,0.74-0.54,1.75c-1.44,4.69-5.34,17.34-6.33,20.57
					c-4.87-4.59-10.77-10.15-10.77-10.15s-5.9,5.56-10.77,10.15c-0.99-3.24-4.89-15.89-6.33-20.57c-0.31-1.01-0.51-1.65-0.54-1.75
					c0-0.01,0-0.01,0-0.01c0.35-1.13,0.54-2.43,0.54-3.93V55.2h34.21v27.82C87.97,84.53,88.16,85.82,88.51,86.96z"/>
			</g>
		</mask>
		<g class="st14">
			<path class="st15" d="M95.74,136.63c-2.99-3.43-4.95-9.28-4.95-15.92c0-10.57,4.99-19.14,11.14-19.14s11.14,8.57,11.14,19.14
				c0,6.64-1.97,12.49-4.96,15.92"/>
			<circle class="st2" cx="95.74" cy="136.63" r="2.38"/>
			<circle class="st2" cx="108.11" cy="136.63" r="2.38"/>
			<path class="st15" d="M36.03,130.68c-0.38-2.52-0.58-5.12-0.58-7.77c0-23.72,15.95-42.95,35.63-42.95
				c13.18,0,24.68,8.62,30.85,21.44"/>
			<g>
				<path class="st6" d="M36.03,135.85c-2.85,0-5.16-2.32-5.16-5.16s2.32-5.16,5.16-5.16c2.85,0,5.16,2.32,5.16,5.16
					S38.88,135.85,36.03,135.85z"/>
				<path class="st2" d="M36.03,127.19c1.93,0,3.49,1.56,3.49,3.49s-1.56,3.49-3.49,3.49c-1.93,0-3.49-1.56-3.49-3.49
					S34.1,127.19,36.03,127.19 M36.03,123.85c-3.77,0-6.83,3.06-6.83,6.83s3.06,6.83,6.83,6.83s6.83-3.06,6.83-6.83
					S39.8,123.85,36.03,123.85L36.03,123.85z"/>
			</g>
		</g>
		<path class="st8" d="M70.1,7.34C54.75,7.66,40.19,19.79,42.49,40.41c1.39,12.46,2.47,14.31,6.18,28.61
			c2.57,9.9,16.23,15.12,21.44,15.46c5.21-0.34,18.87-5.56,21.44-15.46c3.71-14.3,4.8-16.15,6.19-28.61
			C100.02,19.79,85.46,7.66,70.1,7.34z"/>
		<g>
			<path class="st8" d="M95.92,45.96L94.3,58.31c5.42,2.39,6.93-7.89,7.25-10.92c0.08-0.76-0.17-1.53-0.75-2.03
				C98.98,43.79,95.92,45.96,95.92,45.96z"/>
			<path class="st8" d="M38.44,47.39c0.32,3.02,1.83,13.31,7.25,10.92l-1.61-12.34c0,0-3.07-2.18-4.89-0.61
				C38.61,45.85,38.36,46.63,38.44,47.39z"/>
		</g>
		<path class="st2" d="M101.63,20.46c-0.3,6.38,0.03,13.94-3.23,25.03c-0.36,1.23-1.75,4.84-1.75,4.84l0,0
			c-0.63,0.02-1.16-0.49-1.16-1.12v-6.86c-0.71-11.43-1.46-11.51-1.46-11.51c-22.65,6.26-36.61-5.26-36.61-5.26
			c-1.38-1.25-2.39-2.51-3.12-3.73c-1.9,1.5-3.72,3.59-5.24,6.5c0,0-3.51,5.77-3.1,15.56v6.71c0,0.63-0.63,1.06-1.22,0.83l0,0
			l-1.69-6.34C40.85,32.54,42.13,17,42.13,17S44.41,3.38,60.92,0.35c0,0,29.22-2.71,37.05,6.99C97.97,7.34,102,12.61,101.63,20.46z"
			/>
	</g>
</g>
</svg>
