<?xml version="1.0" encoding="utf-8"?>
<!-- Generator: Adobe Illustrator 25.2.0, SVG Export Plug-In . SVG Version: 6.00 Build 0)  -->
<svg version="1.1" xmlns="http://www.w3.org/2000/svg" xmlns:xlink="http://www.w3.org/1999/xlink" x="0px" y="0px"
	 viewBox="0 0 141.73 141.73" style="enable-background:new 0 0 141.73 141.73;" xml:space="preserve">
<style type="text/css">
	.st0{display:none;}
	.st1{display:inline;fill:#4C9AD4;}
	.st2{fill:#333C4B;}
	.st3{fill:#EDEAE3;}
	.st4{fill:#61ABDE;}
	.st5{fill:none;stroke:#B8BBD1;stroke-width:2.0022;stroke-miterlimit:10;}
	.st6{fill:#B8BBD1;}
	.st7{fill:#F1B079;}
	.st8{fill:#F9CB91;}
	.st9{fill:#B22E25;}
	.st10{fill:#EF4136;}
	.st11{fill:#4C9AD4;}
	.st12{filter:url(#Adobe_OpacityMaskFilter);}
	.st13{fill:#FFFFFF;}
	.st14{mask:url(#SVGID_1_);}
	.st15{fill:none;stroke:#B8BBD1;stroke-width:2.0023;stroke-miterlimit:10;}
	.st16{fill:#3C2415;}
</style>
<g id="BG" class="st0">
	<rect x="-141.73" y="-152.52" class="st1" width="425.2" height="446.31"/>
</g>
<g id="Icone">
	<g>
		<path class="st2" d="M113.75,46.01c0,27.81-19.2,60.36-42.89,60.36S27.98,73.82,27.98,46.01S47.18,0,70.87,0
			S113.75,18.21,113.75,46.01z"/>
		<path class="st3" d="M41.48,94.54c-18.89,0-27.85,9.3-27.85,28.12v19.07h52.26L53.77,89.29C51.69,92.54,47.61,94.54,41.48,94.54z"
			/>
		<path class="st3" d="M128.11,122.66v19.07H75.85l7.7-33.34l4.41-19.1c1.91,3,5.54,4.94,10.91,5.22c0.45,0.02,0.91,0.04,1.38,0.04
			c0.37,0,0.73,0,1.09,0.01C119.49,94.91,128.11,104.21,128.11,122.66z"/>
		<path class="st4" d="M58.18,108.41l7.7,33.32h9.97l7.7-33.34c-3.96,0.72-8.25,1.11-12.72,1.11
			C66.39,109.51,62.13,109.12,58.18,108.41z"/>
		<path class="st2" d="M70.87,3.59c-16.35,0-30.2,16.33-30.2,39.11c0,8.11,2.15,15.74,5.52,22.21v-3.75
			c0-33.29,36.21-30.16,36.21-37.54c0,0,4,18.3,18.62,20.95c0.03-0.62,0.04-1.24,0.04-1.87C101.06,19.91,87.22,3.59,70.87,3.59z"/>
		<g>
			<path class="st5" d="M95.74,136.62c-2.99-3.43-4.95-9.28-4.95-15.92c0-10.57,4.99-19.14,11.14-19.14s11.14,8.57,11.14,19.14
				c0,6.64-1.97,12.49-4.95,15.92"/>
			<circle class="st2" cx="95.74" cy="136.62" r="2.38"/>
			<circle class="st2" cx="108.11" cy="136.62" r="2.38"/>
			<path class="st5" d="M36.03,130.67c-0.38-2.52-0.58-5.12-0.58-7.77c0-23.72,15.95-42.95,35.63-42.95
				c13.18,0,24.68,8.62,30.85,21.44"/>
			<g>
				<path class="st6" d="M36.03,135.84c-2.85,0-5.16-2.32-5.16-5.16s2.31-5.16,5.16-5.16s5.16,2.32,5.16,5.16
					S38.88,135.84,36.03,135.84z"/>
				<path class="st2" d="M36.03,127.19c1.93,0,3.49,1.56,3.49,3.49c0,1.93-1.56,3.49-3.49,3.49c-1.93,0-3.49-1.56-3.49-3.49
					C32.54,128.75,34.1,127.19,36.03,127.19 M36.03,123.85c-3.77,0-6.83,3.06-6.83,6.83s3.06,6.83,6.83,6.83s6.83-3.06,6.83-6.83
					S39.8,123.85,36.03,123.85L36.03,123.85z"/>
			</g>
		</g>
		<path class="st7" d="M87.97,89.29l-4.41,19.1c-3.96,0.72-8.25,1.11-12.72,1.11c-4.45,0-8.71-0.39-12.65-1.1l-4.42-19.12
			c0.54-0.84,0.94-1.77,1.21-2.77c0.23-0.85,0.36-1.76,0.39-2.71c0.01-0.15,0.01-0.31,0.01-0.47V73.11h30.99v10.23
			c0,0.1,0,0.2,0,0.3C86.41,85.77,86.94,87.68,87.97,89.29z"/>
		<path class="st8" d="M104.31,48.53c0,3.82-1.87,11.53-6.92,11.53c-5.05,0-6.92-7.71-6.92-11.53s2.58-4.19,6.92-4.19
			S104.31,44.71,104.31,48.53z"/>
		<path class="st8" d="M82.4,23.61c0,7.38-36.21,4.24-36.21,37.54v0c0,2.69,0.77,5.32,2.22,7.58c6.14,9.55,14.9,15.74,22.46,15.74
			c12.87,0,29.26-17.96,30.16-39.91C86.4,41.91,82.4,23.61,82.4,23.61z"/>
	</g>
</g>
</svg>
